<svg version="1.0" xmlns="http://www.w3.org/2000/svg"
 width="1280pt" height="853pt" viewBox="0 0 1280 853"
 preserveAspectRatio="xMidYMid meet">

<g transform="translate(0.000000,853.000000) scale(0.100000,-0.100000)"
 fill="#000000" stroke="none"> {/* Color base negro para texto */}

 {/* Icono Burbujas (Rojo #d80c0d) */}
 <path d="M1945 5833 c-208 -44 -366 -134 -480 -273 -25 -30 -63 -91 -85 -136 -69 -137 -70 -155 -70 -857 0 -572 1 -625 18 -657 32 -64 122 -91 189 -57 15 8 99 75 186 148 233 197 217 189 359 189 89 0 118 -3 118 -13 0 -7 -9 -38 -20 -69 -28 -80 -43 -192 -37 -266 15 -154 131 -260 328 -298 l87 -17 4 -256 c4 -238 6 -260 27 -307 28 -63 71 -106 136 -136 50 -22 50 -22 690 -26 723 -4 870 2 989 42 261 88 441 293 491 558 14 74 15 171 13 714 -3 590 -4 631 -21 659 -31 50 -66 70 -122 70 -49 0 -55 -3 -220 -129 -455 -346 -409 -316 -466 -316 -48 0 -54 3 -103 53 -28 28 -73 70 -99 92 l-47 41 26 64 c39 95 44 207 14 299 -12 39 -33 85 -46 103 -24 32 -24 33 -24 293 0 217 -3 270 -16 310 -24 68 -94 137 -167 164 -57 21 -65 21 -845 20 -433 -1 -796 -3 -807 -6z m1295 -503 c27 -27 26 -65 -2 -84 -20 -14 -105 -16 -717 -16 -765 0 -731 -3 -731 61 0 61 -24 59 737 59 680 0 693 0 713 -20z m338 -255 c46 -20 108 -78 132 -125 44 -88 32 -200 -30 -279 -116 -146 -334 -132 -428 28 -23 40 -27 57 -27 126 0 88 11 117 68 181 65 75 195 106 285 69z m-1065 -62 c3 -5 -17 -32 -43 -60 l-49 -53 -296 0 c-185 0 -304 4 -316 10 -13 7 -19 21 -19 45 0 64 3 65 382 65 185 0 339 -3 341 -7z m391 -83 c111 -56 168 -190 132 -312 -19 -65 -79 -139 -140 -171 -58 -30 -174 -31 -231 0 -91 48 -145 138 -144 238 1 112 51 195 150 244 55 28 72 32 124 29 37 -2 78 -13 109 -28z m-532 -296 c1 -31 1 -58 -1 -60 -2 -2 -125 -4 -273 -4 l-269 0 -24 24 c-22 22 -23 29 -14 53 5 15 16 31 22 35 7 4 134 8 284 8 l271 0 4 -56z m1323 -173 c153 -55 247 -185 261 -361 10 -118 -44 -170 -196 -190 -87 -11 -247 -12 -305 -2 -38 7 -40 9 -50 62 -32 156 -91 268 -189 357 -31 29 -55 57 -52 61 14 23 93 67 149 83 89 27 296 21 382 -10z m-767 -126 c182 -43 296 -167 338 -366 33 -158 -22 -236 -195 -276 -111 -26 -549 -26 -633 0 -66 20 -125 67 -144 114 -28 65 -11 195 37 298 28 60 107 146 164 180 102 59 297 82 433 50z m1520 -487 c21 -28 22 -55 3 -79 -19 -23 -23 -24 -198 -27 -201 -4 -249 4 -259 43 -4 16 0 35 10 50 l16 25 209 0 c155 0 211 -3 219 -12z m0 -290 c24 -31 23 -57 -2 -83 l-25 -25 -641 0 -641 0 -24 25 c-29 28 -31 42 -9 73 l15 22 658 0 c515 0 661 -3 669 -12z m-398 -297 c14 -4 31 -19 39 -33 13 -23 13 -29 -2 -52 l-17 -26 -475 0 -475 0 -17 26 c-25 39 -2 77 52 85 56 9 864 9 895 0z" fill="#d80c0d"/>

 {/* Texto RUEDA (negro/gris oscuro heredado) */}
 <path d="M5398 5404 c-5 -4 -8 -211 -8 -461 l0 -453 105 0 105 0 0 155 0 155 53 0 52 0 83 -155 84 -155 109 0 c60 0 109 3 109 6 0 3 -33 65 -74 137 -40 73 -82 147 -92 165 -19 33 -19 34 0 45 46 29 89 74 114 121 22 43 26 64 26 131 0 67 -4 89 -27 137 -35 71 -88 119 -163 148 -53 21 -80 24 -264 28 -113 2 -208 1 -212 -4z m360 -185 c67 -14 94 -44 100 -113 4 -48 1 -56 -24 -85 -33 -37 -79 -50 -171 -51 l-63 0 0 130 0 130 55 0 c29 0 76 -5 103 -11z" />
 <path d="M6194 5397 c-3 -8 -4 -160 -2 -338 3 -310 4 -327 26 -381 29 -71 88 -133 160 -166 82 -38 222 -43 323 -12 92 28 164 95 198 184 20 55 21 70 19 389 l-3 332 -95 0 -95 0 -5 -325 c-5 -356 -6 -357 -67 -397 -37 -25 -149 -25 -186 0 -61 40 -62 41 -67 397 l-5 325 -98 3 c-77 2 -98 0 -103 -11z" />
 <path d="M7050 4950 l0 -460 283 2 282 3 3 93 3 92 -186 0 -185 0 0 90 0 89 158 3 157 3 3 88 3 87 -161 0 -160 0 0 90 0 90 180 0 181 0 -3 93 -3 92 -277 3 -278 2 0 -460z" />
 <path d="M7747 5403 c-4 -3 -7 -210 -7 -460 l0 -453 183 0 c261 0 364 27 470 121 185 162 194 474 19 661 -60 65 -164 115 -263 128 -84 11 -392 13 -402 3z m462 -220 c69 -36 108 -90 123 -171 24 -130 -27 -250 -127 -301 -41 -20 -69 -25 -157 -29 l-108 -5 0 265 c0 146 3 268 8 273 4 4 52 5 107 1 82 -5 110 -11 154 -33z"  />

 {/* Texto DE (Rojo #d80c0d) */}
 <path d="M8860 5390 c-10 -19 -111 -300 -240 -670 -37 -107 -71 -203 -75 -212 -7 -17 2 -18 102 -18 l109 0 24 83 25 82 177 3 176 2 17 -57 c34 -120 18 -108 138 -111 79 -2 107 1 107 10 0 10 -284 821 -310 886 -9 21 -15 22 -124 22 -105 0 -116 -2 -126 -20z m185 -380 c26 -80 50 -151 52 -157 4 -10 -22 -13 -111 -13 -83 0 -116 3 -116 12 0 6 23 77 51 157 27 80 52 153 55 161 5 13 6 13 14 0 4 -8 29 -80 55 -160z"  /> 
 <path d="M9758 5094 c-10 -9 -10 -145 -1 -411 l6 -203 101 0 c134 1 237 15 285 40 176 90 211 352 65 493 -65 63 -125 80 -299 85 -82 2 -153 0 -157 -4z m332 -156 c53 -37 73 -71 78 -135 3 -47 -1 -67 -20 -102 -31 -58 -76 -81 -173 -88 l-75 -6 0 177 0 176 79 0 c64 0 84 -4 111 -22z" fill="#d80c0d"/> {/* Letra E */}

 {/* Texto PROBLEMAS (negro/gris oscuro heredado) */}
 <path d="M10387 5093 c-2 -5 -2 -144 1 -310 l5 -303 188 0 189 0 0 65 0 65 -120 0 -120 0 0 60 0 60 105 0 105 0 0 60 0 60 -105 0 -105 0 0 55 0 54 118 3 117 3 0 65 0 65 -187 3 c-103 1 -189 -1 -191 -5z" fill="#d80c0d"/>
 <path d="M7070 4068 c-118 -37 -209 -121 -255 -235 -84 -210 0 -442 197 -545 62 -32 66 -33 193 -33 124 0 133 1 190 29 83 41 155 113 196 194 33 65 34 71 34 187 0 109 -2 125 -26 175 -96 202 -314 296 -529 228z m248 -174 c146 -73 177 -290 58 -408 -46 -46 -115 -76 -175 -76 -46 0 -128 39 -163 76 -93 99 -88 279 9 370 72 68 180 83 271 38z" />
 <path d="M11582 4072 c-109 -39 -168 -129 -160 -245 7 -117 59 -169 237 -236 56 -22 114 -49 127 -62 46 -43 19 -111 -49 -124 -70 -13 -130 19 -173 91 -11 18 -14 18 -84 -5 -40 -14 -74 -31 -77 -38 -15 -39 63 -140 137 -178 43 -22 147 -33 226 -23 201 24 300 223 187 375 -32 44 -92 77 -210 118 -138 48 -178 101 -117 162 23 23 31 25 82 21 50 -4 60 -9 90 -44 36 -41 36 -41 120 -18 64 19 67 37 18 109 -49 74 -117 108 -221 112 -60 3 -93 -1 -133 -15z"  /> 
 <path d="M5390 3671 l0 -411 95 0 95 0 0 129 0 128 103 6 c127 6 187 27 243 83 69 69 91 174 58 285 -19 65 -100 150 -161 170 -23 7 -117 14 -235 16 l-198 5 0 -411z m396 196 c17 -20 24 -40 24 -70 0 -79 -44 -107 -167 -107 l-63 0 0 104 c0 120 -7 114 107 106 66 -5 78 -8 99 -33z" />
 <path d="M6090 3671 l0 -411 95 0 95 0 0 135 0 135 48 0 49 0 68 -131 c38 -72 74 -133 80 -135 6 -3 55 -3 107 -2 l96 3 -83 145 -84 145 50 44 c73 64 94 109 94 206 0 96 -21 142 -89 202 -67 59 -95 65 -323 70 l-203 5 0 -411z m396 205 c25 -25 34 -43 34 -67 -1 -82 -53 -119 -167 -119 l-73 0 0 110 0 110 86 0 c84 0 87 -1 120 -34z" />
 <path d="M7730 3670 l0 -410 203 0 c202 0 202 0 262 29 98 47 135 104 135 209 0 49 -5 66 -31 105 -17 26 -34 47 -37 47 -4 0 -18 9 -31 19 l-25 19 33 28 c60 50 74 116 46 212 -20 66 -71 117 -138 137 -37 11 -101 15 -234 15 l-183 0 0 -410z m370 220 c13 -13 20 -33 20 -60 0 -65 -23 -80 -125 -80 l-85 0 0 80 0 80 85 0 c72 0 88 -3 105 -20z m-1 -308 c39 -19 54 -55 42 -99 -11 -44 -61 -64 -151 -61 l-75 3 -3 74 c-2 41 -1 80 2 88 8 20 142 17 185 -5z" />
 <path d="M8434 4049 c3 -17 6 -202 6 -410 l0 -379 240 0 240 0 0 85 0 84 -146 3 -147 3 -1 320 -1 320 -99 3 -99 3 7 -32z" />
 <path d="M9011 3700 c1 -209 4 -394 7 -410 l4 -30 254 0 254 0 0 85 0 85 -165 0 -165 0 0 80 0 80 145 0 146 0 -3 78 -3 77 -142 3 -143 3 0 79 0 80 160 0 160 0 0 85 0 85 -256 0 -256 0 3 -380z" />
 <path d="M9640 3670 l0 -410 96 0 96 0 -4 245 c-2 134 0 241 3 237 4 -4 52 -83 109 -177 56 -93 108 -177 116 -185 13 -13 16 -13 25 0 39 60 210 342 215 354 16 41 19 -2 16 -229 l-3 -246 93 3 93 3 -3 405 -4 405 -87 3 -88 3 -108 -184 c-133 -226 -133 -227 -145 -207 -5 8 -58 98 -117 200 l-109 185 -97 3 -97 3 0 -411z" />
 <path d="M10770 3818 c-153 -433 -190 -541 -190 -550 0 -4 42 -8 94 -8 l94 0 25 73 24 72 153 0 153 0 25 -72 24 -73 94 0 c52 0 94 3 94 8 0 9 -37 115 -85 247 -21 55 -43 118 -50 140 -8 22 -30 85 -50 140 -20 55 -48 134 -62 175 -40 118 -29 110 -147 110 l-103 0 -93 -262z m250 -96 c25 -75 46 -143 48 -149 3 -10 -22 -13 -97 -13 -74 0 -101 3 -101 13 0 18 93 287 100 287 3 0 25 -62 50 -138z" />
</g>
</svg>